<svg aria-hidden="true" style="width:0;height:0;position:absolute;overflow:hidden" xmlns="http://www.w3.org/2000/svg"><defs><symbol id="icon-burger-mini" viewBox="0 0 32 32"><path stroke-linejoin="round" stroke-linecap="round" stroke-width="2.5" d="M4 16h24M4 8h24M4 24h24"/></symbol><symbol id="icon-burger-maxi" viewBox="0 0 45 32"><path stroke-linejoin="round" stroke-linecap="round" stroke-width="4" d="M3.2 16h38.4M3.2 3.2h38.4M3.2 28.8h38.4"/></symbol><symbol id="icon-twitter" viewBox="0 0 32 32"><path stroke-linejoin="round" stroke-linecap="round" stroke-width="2.667" d="M30.667 4a14.542 14.542 0 0 1-4.187 2.04 5.975 5.975 0 0 0-6.637-1.661A5.981 5.981 0 0 0 16 10.04v1.333c-2.343.061-4.665-.459-6.759-1.513S4.68 6.297 3.333 4.379c0 0-4.667 12.954 7.333 18.287a15.519 15.519 0 0 1-9.333 2.667C13.333 32 28 25.333 28 10a5.966 5.966 0 0 0-.107-1.107A10.288 10.288 0 0 0 30.666 4z"/></symbol><symbol id="icon-instagram" viewBox="0 0 32 32"><path stroke-linejoin="round" stroke-linecap="round" stroke-width="2.667" d="M22.667 2.667H9.334a6.667 6.667 0 0 0-6.667 6.667v13.333a6.667 6.667 0 0 0 6.667 6.667h13.333a6.667 6.667 0 0 0 6.667-6.667V9.334a6.667 6.667 0 0 0-6.667-6.667z"/><path stroke-linejoin="round" stroke-linecap="round" stroke-width="2.667" d="M21.334 15.16a5.329 5.329 0 0 1-2.878 5.546 5.338 5.338 0 0 1-6.169-.992 5.33 5.33 0 0 1 1.316-8.505 5.336 5.336 0 0 1 6.228.962 5.328 5.328 0 0 1 1.504 2.989zM23.333 8.667h.013"/></symbol><symbol id="icon-scroll" viewBox="0 0 32 32"><path d="M16.947 17.867a1.334 1.334 0 0 1-1.894 0l-6.107-6.12a1.334 1.334 0 1 0-1.894 1.88l6.12 6.12a4.001 4.001 0 0 0 5.654 0l6.12-6.12a1.337 1.337 0 0 0-.434-2.172 1.331 1.331 0 0 0-1.46.292l-6.107 6.12z"/></symbol><symbol id="icon-modal-close" viewBox="0 0 32 32"><path d="M32 3.223 28.777 0 16 12.777 3.223 0 0 3.223 12.777 16 0 28.777 3.223 32 16 19.223 28.777 32 32 28.777 19.223 16 32 3.223z"/></symbol><symbol id="icon-x-close" viewBox="0 0 32 32"><path stroke-linejoin="round" stroke-linecap="round" stroke-width="2.286" d="M24 8 8 24M8 8l16 16"/></symbol><symbol id="icon-setanta_logo" viewBox="0 0 69 32"><path fill="#ffd106" style="fill:var(--color1,#ffd106)" d="M8 7.952v16.097h16.097V7.952H8zm9.102 12.264h-4.599a.192.192 0 0 1-.192-.192v-3.449c0-.106.086-.192.192-.192h4.599a1.917 1.917 0 0 1 0 3.834zm2.682-4.791a.192.192 0 0 1-.192.192h-4.599a1.917 1.917 0 0 1 0-3.834h4.599c.106 0 .192.086.192.192v3.449zM58.077 9.867h1.045l2.191 5.136h-1.182l-.479-1.147h-2.139l-.479 1.147h-1.147l2.191-5.136zm1.198 3.013-.685-1.661-.685 1.661h1.369zM53.781 10.895h-1.558V9.868h4.245v1.027H54.91v4.109h-1.129v-4.109zM46.95 9.867h1.045l2.379 3.168V9.867h1.13v5.136h-.976L48.08 11.75v3.253h-1.13V9.867zM42.995 9.867h1.045l2.191 5.136h-1.182l-.479-1.147h-2.139l-.479 1.147h-1.147l2.191-5.136zm1.199 3.013-.685-1.661-.685 1.661h1.369zM38.698 10.895H37.14V9.868h4.246v1.027h-1.558v4.109h-1.13v-4.109zM32.485 9.867h3.937v1.027h-2.807v1.027h2.242v1.027h-2.242v1.026h2.807v1.027h-3.937V9.865zM29.129 11.289c0-.245.21-.398.455-.398h1.959V9.867l-2.139.017c-.791 0-1.455.613-1.455 1.403 0 .662.47 1.248 1.113 1.403l1.163.274a.54.54 0 0 1 .411.513c0 .288-.259.496-.547.496H28.12V15h2.157c.834 0 1.523-.69 1.523-1.523 0-.698-.52-1.309-1.199-1.472l-1.13-.291a.443.443 0 0 1-.343-.427zM28.51 18.189a.73.73 0 0 1 .734-.734h2.253v-.546h-2.269a1.3 1.3 0 0 0-1.297 1.297c0 .597.409 1.105.99 1.246l1.621.392c.375.09.631.433.631.819a.836.836 0 0 1-.835.835h-2.235v.529h2.253c.767 0 1.399-.615 1.399-1.382a1.38 1.38 0 0 0-1.058-1.347l-1.621-.392a.735.735 0 0 1-.563-.717zM51.934 18.189a.73.73 0 0 1 .734-.734h2.253v-.546h-2.269a1.3 1.3 0 0 0-1.297 1.297c0 .597.409 1.105.99 1.246l1.621.392c.375.09.631.433.631.819a.836.836 0 0 1-.835.835h-2.235v.529h2.253c.767 0 1.399-.615 1.399-1.382a1.38 1.38 0 0 0-1.058-1.347l-1.621-.392a.735.735 0 0 1-.563-.717zM36.289 18.565c0 1.104-.911 1.655-2.001 1.655h-1.241v1.808h-.581V16.91h1.911c1.145 0 1.898.659 1.911 1.655zm-.58 0c0-.731-.504-1.109-1.33-1.109h-1.33v2.235h1.297c.848 0 1.365-.454 1.365-1.126zM41.834 19.469c0 1.41-1.021 2.645-2.576 2.645s-2.61-1.234-2.61-2.645 1.055-2.645 2.61-2.645 2.576 1.234 2.576 2.645zm-.58 0c0-1.161-.827-2.098-1.997-2.098s-2.03.937-2.03 2.098.862 2.098 2.03 2.098 1.997-.937 1.997-2.098zM46.594 18.445c0 .848-.577 1.355-1.382 1.502l1.569 2.081h-.699l-1.502-1.997h-1.45v1.997h-.581V16.91h2.201c.63 0 1.128.19 1.45.512.249.249.392.622.392 1.024zm-.58 0c0-.63-.487-.99-1.313-.99h-1.569v2.03h1.569c.768 0 1.313-.382 1.313-1.041zM48.693 17.455h-1.741v-.545h4.043v.545h-1.723v4.573h-.579v-4.573z"/></symbol></defs></svg>