<svg aria-hidden="true" style="width:0;height:0;position:absolute;overflow:hidden" xmlns="http://www.w3.org/2000/svg"><defs><symbol id="icon-burger-mini" viewBox="0 0 32 32"><path stroke-linejoin="round" stroke-linecap="round" stroke-width="2.5" d="M4 16h24M4 8h24M4 24h24"/></symbol><symbol id="icon-burger-maxi" viewBox="0 0 45 32"><path stroke-linejoin="round" stroke-linecap="round" stroke-width="4" d="M3.2 16h38.4M3.2 3.2h38.4M3.2 28.8h38.4"/></symbol><symbol id="icon-twitter" viewBox="0 0 32 32"><path stroke-linejoin="round" stroke-linecap="round" stroke-width="2.667" d="M30.667 4a14.542 14.542 0 0 1-4.187 2.04 5.975 5.975 0 0 0-6.637-1.661A5.981 5.981 0 0 0 16 10.04v1.333c-2.343.061-4.665-.459-6.759-1.513S4.68 6.297 3.333 4.379c0 0-4.667 12.954 7.333 18.287a15.519 15.519 0 0 1-9.333 2.667C13.333 32 28 25.333 28 10a5.966 5.966 0 0 0-.107-1.107A10.288 10.288 0 0 0 30.666 4z"/></symbol><symbol id="icon-instagram" viewBox="0 0 32 32"><path stroke-linejoin="round" stroke-linecap="round" stroke-width="2.667" d="M22.667 2.667H9.334a6.667 6.667 0 0 0-6.667 6.667v13.333a6.667 6.667 0 0 0 6.667 6.667h13.333a6.667 6.667 0 0 0 6.667-6.667V9.334a6.667 6.667 0 0 0-6.667-6.667z"/><path stroke-linejoin="round" stroke-linecap="round" stroke-width="2.667" d="M21.334 15.16a5.329 5.329 0 0 1-2.878 5.546 5.338 5.338 0 0 1-6.169-.992 5.33 5.33 0 0 1 1.316-8.505 5.336 5.336 0 0 1 6.228.962 5.328 5.328 0 0 1 1.504 2.989zM23.333 8.667h.013"/></symbol><symbol id="icon-scroll" viewBox="0 0 32 32"><path d="M16.947 17.867a1.334 1.334 0 0 1-1.894 0l-6.107-6.12a1.334 1.334 0 1 0-1.894 1.88l6.12 6.12a4.001 4.001 0 0 0 5.654 0l6.12-6.12a1.337 1.337 0 0 0-.434-2.172 1.331 1.331 0 0 0-1.46.292l-6.107 6.12z"/></symbol><symbol id="icon-modal-close" viewBox="0 0 32 32"><path d="M32 3.223 28.777 0 16 12.777 3.223 0 0 3.223 12.777 16 0 28.777 3.223 32 16 19.223 28.777 32 32 28.777 19.223 16 32 3.223z"/></symbol><symbol id="icon-x-close" viewBox="0 0 32 32"><path stroke-linejoin="round" stroke-linecap="round" stroke-width="2.286" d="M24 8 8 24M8 8l16 16"/></symbol><symbol id="icon-setanta_logo" viewBox="0 0 114 32"><path fill="#111" style="fill:var(--color1,#111)" d="M0 0h113.6v32H0V0z"/><path fill="#111" style="fill:var(--color2,#111)" d="M1.333 1.333h24v29.333h-24V1.333z"/><path fill="#ffd106" style="fill:var(--color3,#ffd106)" d="M0 32h32V0H0zm18.095-7.619H8.952A.382.382 0 0 1 8.571 24v-6.857c0-.21.171-.381.381-.381h9.143a3.81 3.81 0 0 1 0 7.62zm5.333-9.524c0 .21-.171.381-.381.381h-9.143a3.81 3.81 0 0 1 0-7.618h9.143c.21 0 .381.17.381.381z"/><path fill="#111" style="fill:var(--color2,#111)" d="M32 0h81.6v32H32V0z"/><path fill="#ffd106" style="fill:var(--color3,#0ffd106)" d="M99.579 3.822h2.076l4.356 10.209h-2.349l-.953-2.28h-4.254l-.953 2.28h-2.28zm2.382 5.99-1.36-3.301-1.36 3.301z"/><path fill="#ffd106" style="fill:var(--color3,#ffd106)" d="M91.037 5.864H87.94V3.823h8.44v2.041h-3.097v8.168h-2.246zM77.458 3.822h2.076l4.731 6.296V3.822h2.245v10.21h-1.94l-4.867-6.466v6.466h-2.246zM69.597 3.822h2.077l4.355 10.209H73.68l-.953-2.28h-4.254l-.953 2.28h-2.28zm2.382 5.99-1.36-3.301-1.36 3.301zM61.055 5.864h-3.097V3.823h8.44v2.041h-3.097v8.168h-2.246zM48.701 3.822h7.827v2.041h-5.581v2.042h4.458v2.042h-4.458v2.042h5.581v2.042h-7.827zM42.031 6.647a.828.828 0 0 1 .909-.789h-.003 3.893V3.823l-4.254.034-.055-.001a2.838 2.838 0 0 0-2.838 2.789v.003a2.903 2.903 0 0 0 2.191 2.786l.02.004 2.313.544c.466.117.807.528.818 1.02v.001c-.03.552-.484.988-1.041.988l-.051-.001h.002-3.913v2.042h4.288a3.05 3.05 0 0 0 3.029-3.028v-.001a3.09 3.09 0 0 0-2.361-2.921l-.021-.004-2.246-.579a.882.882 0 0 1-.681-.851zM40.798 20.364v-.008c0-.801.65-1.451 1.451-1.451h4.484V17.82h-4.511a2.584 2.584 0 0 0-2.578 2.577 2.544 2.544 0 0 0 1.95 2.472l.017.003 3.222.78a1.671 1.671 0 0 1-.406 3.289h-4.444v1.051h4.505a2.753 2.753 0 0 0 .67-5.424l-.019-.004-3.222-.779a1.463 1.463 0 0 1-1.12-1.42v-.005zM87.366 20.364v-.008c0-.801.65-1.451 1.451-1.451h4.485V17.82h-4.511a2.584 2.584 0 0 0-2.578 2.577 2.544 2.544 0 0 0 1.95 2.472l.017.003 3.222.78a1.671 1.671 0 0 1-.406 3.289h-4.444v1.051h4.505a2.753 2.753 0 0 0 .67-5.424l-.019-.004-3.222-.779a1.463 1.463 0 0 1-1.12-1.42v-.005zM56.264 21.11c0 2.195-1.811 3.29-3.978 3.29h-2.467v3.595h-1.153V17.82h3.799c2.277 0 3.773 1.311 3.799 3.29zm-1.154 0c0-1.454-1.003-2.205-2.645-2.205h-2.646v4.443h2.578c1.686 0 2.713-.901 2.713-2.238zM67.287 22.908c0 2.803-2.028 5.257-5.122 5.257s-5.189-2.453-5.189-5.257 2.096-5.257 5.189-5.257 5.122 2.455 5.122 5.257zm-1.153 0c0-2.309-1.645-4.172-3.968-4.172s-4.036 1.863-4.036 4.172 1.714 4.172 4.036 4.172 3.968-1.863 3.968-4.172zM76.75 20.873c0 1.687-1.147 2.693-2.747 2.985l3.12 4.138h-1.391l-2.985-3.968h-2.883v3.968h-1.153V17.821h4.375c1.251 0 2.243.377 2.883 1.018.484.513.781 1.207.781 1.97l-.001.068v-.003zm-1.153 0c0-1.251-.968-1.967-2.611-1.967h-3.12v4.036h3.12c1.527 0 2.611-.759 2.611-2.069zM80.922 18.906h-3.46v-1.085H85.5v1.085h-3.426v9.09h-1.153z"/></symbol><symbol id="icon-setanta_logo_short" viewBox="0 0 32 32"><path fill="#fff" style="fill:var(--color1,#fff)" d="M0 0h32v32H0V0z"/><path fill="#111" style="fill:var(--color2,#111)" d="M1.333 1.333H30.4v29.333H1.333V1.333z"/><path style="fill:var(--color3,#000)" d="M0 32h32V0H0zm18.095-7.619H8.952A.382.382 0 0 1 8.571 24v-6.857c0-.21.171-.381.381-.381h9.143a3.81 3.81 0 0 1 0 7.62zm5.333-9.524c0 .21-.171.381-.381.381h-9.143a3.81 3.81 0 0 1 0-7.618h9.143c.21 0 .381.17.381.381z"/></symbol></defs></svg>