<svg aria-hidden="true" style="position: absolute; width: 0; height: 0; overflow: hidden;" version="1.1" xmlns="http://www.w3.org/2000/svg" xmlns:xlink="http://www.w3.org/1999/xlink">
<defs>
<symbol id="icon-burger-mini" viewBox="0 0 32 32">
<path stroke-linejoin="round" stroke-linecap="round" stroke-miterlimit="4" stroke-width="2.5" d="M4 16h24M4 8h24M4 24h24"></path>
</symbol>


<symbol id="icon-burger-maxi" viewBox="0 0 45 32">
<path stroke-linejoin="round" stroke-linecap="round" stroke-miterlimit="4" stroke-width="4" d="M3.2 16h38.4M3.2 3.2h38.4M3.2 28.8h38.4"></path>
</symbol>
<symbol id="icon-twitter" viewBox="0 0 32 32">
<path stroke-linejoin="round" stroke-linecap="round" stroke-miterlimit="4" stroke-width="2.6667" d="M30.667 4c-1.277 0.901-2.691 1.589-4.187 2.040-0.803-0.923-1.87-1.578-3.057-1.875s-2.437-0.222-3.58 0.214c-1.143 0.436-2.125 1.213-2.812 2.226s-1.047 2.212-1.031 3.435v1.333c-2.343 0.061-4.665-0.459-6.759-1.513s-4.561-3.563-5.908-5.481c0 0-4.667 12.954 7.333 18.287-2.746 1.864-6.017 2.799-9.333 2.667 12 6.667 26.667 0 26.667-15.333-0.001-0.371-0.037-0.742-0.107-1.107 1.361-1.342 2.321-3.036 2.773-4.893z"></path>
</symbol>
<symbol id="icon-instagram" viewBox="0 0 32 32">
<path stroke-linejoin="round" stroke-linecap="round" stroke-miterlimit="4" stroke-width="2.6667" d="M22.667 2.667h-13.333c-3.682 0-6.667 2.985-6.667 6.667v13.333c0 3.682 2.985 6.667 6.667 6.667h13.333c3.682 0 6.667-2.985 6.667-6.667v-13.333c0-3.682-2.985-6.667-6.667-6.667z"></path>
<path stroke-linejoin="round" stroke-linecap="round" stroke-miterlimit="4" stroke-width="2.6667" d="M21.334 15.16c0.165 1.11-0.025 2.243-0.542 3.239s-1.334 1.803-2.336 2.307c-1.002 0.504-2.138 0.68-3.245 0.502s-2.131-0.701-2.924-1.494-1.316-1.816-1.494-2.924c-0.178-1.108-0.003-2.243 0.502-3.245s1.312-1.819 2.308-2.336 2.129-0.706 3.239-0.542c1.132 0.168 2.18 0.695 2.989 1.504s1.337 1.857 1.504 2.989z"></path>
<path stroke-linejoin="round" stroke-linecap="round" stroke-miterlimit="4" stroke-width="2.6667" d="M23.333 8.667h0.013"></path>
</symbol>

<symbol id="icon-scroll" viewBox="0 0 32 32">
<path d="M16.947 17.867c-0.124 0.125-0.271 0.224-0.434 0.292s-0.337 0.103-0.513 0.103-0.35-0.035-0.513-0.103c-0.162-0.068-0.31-0.167-0.434-0.292l-6.107-6.12c-0.124-0.125-0.271-0.224-0.434-0.292s-0.337-0.103-0.513-0.103c-0.176 0-0.35 0.035-0.513 0.103s-0.31 0.167-0.434 0.292c-0.248 0.25-0.388 0.588-0.388 0.94s0.139 0.69 0.388 0.94l6.12 6.12c0.75 0.749 1.767 1.17 2.827 1.17s2.077-0.421 2.827-1.17l6.12-6.12c0.246-0.248 0.385-0.584 0.387-0.933 0.001-0.175-0.033-0.349-0.099-0.512s-0.164-0.31-0.288-0.435c-0.124-0.125-0.271-0.224-0.434-0.292s-0.337-0.103-0.513-0.103-0.35 0.035-0.513 0.103c-0.162 0.068-0.31 0.167-0.434 0.292l-6.107 6.12z"></path>
</symbol>

<symbol id="icon-modal-close" viewBox="0 0 32 32">
<path d="M32 3.223 28.777 0 16 12.777 3.223 0 0 3.223 12.777 16 0 28.777 3.223 32 16 19.223 28.777 32 32 28.777 19.223 16 32 3.223z"/>
</symbol>
<symbol id="icon-x-close" viewBox="0 0 32 32">
<path stroke-linejoin="round" stroke-linecap="round" stroke-miterlimit="4" stroke-width="2.2857" d="M24 8l-16 16"></path>
<path stroke-linejoin="round" stroke-linecap="round" stroke-miterlimit="4" stroke-width="2.2857" d="M8 8l16 16"></path>
</symbol>
<symbol id="icon-setanta_logo" viewBox="0 0 69 32">
<path fill="#ffd106" style="fill: var(--color1, #ffd106)" d="M8 7.952v16.097h16.097v-16.097h-16.097zM17.102 20.216h-4.599c-0.106 0-0.192-0.086-0.192-0.192v-3.449c0-0.106 0.086-0.192 0.192-0.192h4.599c1.058 0 1.917 0.858 1.917 1.917s-0.858 1.917-1.917 1.917zM19.784 15.425c0 0.106-0.086 0.192-0.192 0.192h-4.599c-1.058 0-1.917-0.858-1.917-1.917s0.858-1.917 1.917-1.917h4.599c0.106 0 0.192 0.086 0.192 0.192v3.449z"></path>
<path fill="#ffd106" style="fill: var(--color1, #ffd106)" d="M58.077 9.867h1.045l2.191 5.136h-1.182l-0.479-1.147h-2.139l-0.479 1.147h-1.147l2.191-5.136zM59.275 12.88l-0.685-1.661-0.685 1.661h1.369z"></path>
<path fill="#ffd106" style="fill: var(--color1, #ffd106)" d="M53.781 10.895h-1.558v-1.027h4.245v1.027h-1.558v4.109h-1.129v-4.109z"></path>
<path fill="#ffd106" style="fill: var(--color1, #ffd106)" d="M46.95 9.867h1.045l2.379 3.168v-3.168h1.13v5.136h-0.976l-2.448-3.253v3.253h-1.13v-5.136z"></path>
<path fill="#ffd106" style="fill: var(--color1, #ffd106)" d="M42.995 9.867h1.045l2.191 5.136h-1.182l-0.479-1.147h-2.139l-0.479 1.147h-1.147l2.191-5.136zM44.194 12.88l-0.685-1.661-0.685 1.661h1.369z"></path>
<path fill="#ffd106" style="fill: var(--color1, #ffd106)" d="M38.698 10.895h-1.558v-1.027h4.246v1.027h-1.558v4.109h-1.13v-4.109z"></path>
<path fill="#ffd106" style="fill: var(--color1, #ffd106)" d="M32.485 9.867h3.937v1.027h-2.807v1.027h2.242v1.027h-2.242v1.026h2.807v1.027h-3.937v-5.136z"></path>
<path fill="#ffd106" style="fill: var(--color1, #ffd106)" d="M29.129 11.289c0-0.245 0.21-0.398 0.455-0.398h1.959v-1.024l-2.139 0.017c-0.791 0-1.455 0.613-1.455 1.403 0 0.662 0.47 1.248 1.113 1.403l1.163 0.274c0.234 0.056 0.411 0.273 0.411 0.513 0 0.288-0.259 0.496-0.547 0.496h-1.969v1.027h2.157c0.834 0 1.523-0.69 1.523-1.523 0-0.698-0.52-1.309-1.199-1.472l-1.13-0.291c-0.199-0.048-0.343-0.223-0.343-0.427z"></path>
<path fill="#ffd106" style="fill: var(--color1, #ffd106)" d="M28.51 18.189c0-0.408 0.326-0.734 0.734-0.734h2.253v-0.546h-2.269c-0.713 0-1.297 0.583-1.297 1.297 0 0.597 0.409 1.105 0.99 1.246l1.621 0.392c0.375 0.090 0.631 0.433 0.631 0.819 0 0.461-0.375 0.835-0.835 0.835h-2.235v0.529h2.253c0.767 0 1.399-0.615 1.399-1.382 0-0.641-0.434-1.198-1.058-1.347l-1.621-0.392c-0.331-0.080-0.563-0.375-0.563-0.717z"></path>
<path fill="#ffd106" style="fill: var(--color1, #ffd106)" d="M51.934 18.189c0-0.408 0.326-0.734 0.734-0.734h2.253v-0.546h-2.269c-0.713 0-1.297 0.583-1.297 1.297 0 0.597 0.409 1.105 0.99 1.246l1.621 0.392c0.375 0.090 0.631 0.433 0.631 0.819 0 0.461-0.375 0.835-0.835 0.835h-2.235v0.529h2.253c0.767 0 1.399-0.615 1.399-1.382 0-0.641-0.434-1.198-1.058-1.347l-1.621-0.392c-0.331-0.080-0.563-0.375-0.563-0.717z"></path>
<path fill="#ffd106" style="fill: var(--color1, #ffd106)" d="M36.289 18.565c0 1.104-0.911 1.655-2.001 1.655h-1.241v1.808h-0.581v-5.118h1.911c1.145 0 1.898 0.659 1.911 1.655zM35.709 18.565c0-0.731-0.504-1.109-1.33-1.109h-1.33v2.235h1.297c0.848 0 1.365-0.454 1.365-1.126z"></path>
<path fill="#ffd106" style="fill: var(--color1, #ffd106)" d="M41.834 19.469c0 1.41-1.021 2.645-2.576 2.645s-2.61-1.234-2.61-2.645 1.055-2.645 2.61-2.645 2.576 1.234 2.576 2.645zM41.254 19.469c0-1.161-0.827-2.098-1.997-2.098s-2.030 0.937-2.030 2.098 0.862 2.098 2.030 2.098 1.997-0.937 1.997-2.098z"></path>
<path fill="#ffd106" style="fill: var(--color1, #ffd106)" d="M46.594 18.445c0 0.848-0.577 1.355-1.382 1.502l1.569 2.081h-0.699l-1.502-1.997h-1.45v1.997h-0.581v-5.118h2.201c0.63 0 1.128 0.19 1.45 0.512 0.249 0.249 0.392 0.622 0.392 1.024zM46.014 18.445c0-0.63-0.487-0.99-1.313-0.99h-1.569v2.030h1.569c0.768 0 1.313-0.382 1.313-1.041z"></path>
<path fill="#ffd106" style="fill: var(--color1, #ffd106)" d="M48.693 17.455h-1.741v-0.545h4.043v0.545h-1.723v4.573h-0.579v-4.573z"></path>
</symbol>
<symbol id="icon-play" viewBox="0 0 32 32">
<path d="M30.662 5.003c-4.488-0.645-9.448-1.003-14.662-1.003s-10.174 0.358-14.662 1.003c-0.86 3.366-1.338 7.086-1.338 10.997s0.477 7.63 1.338 10.997c4.489 0.645 9.448 1.003 14.662 1.003s10.174-0.358 14.662-1.003c0.86-3.366 1.338-7.086 1.338-10.997s-0.477-7.63-1.338-10.997zM12 22v-12l10 6-10 6z"></path>
</symbol>
</defs>
 
</svg>
