<svg aria-hidden="true" style="position: absolute; width: 0; height: 0; overflow: hidden;" version="1.1" xmlns="http://www.w3.org/2000/svg" xmlns:xlink="http://www.w3.org/1999/xlink">
<defs>
<symbol id="icon-burger-mini" viewBox="0 0 32 32">
<path stroke-linejoin="round" stroke-linecap="round" stroke-miterlimit="4" stroke-width="2.5" d="M4 16h24M4 8h24M4 24h24"></path>
</symbol>


<symbol id="icon-burger-maxi" viewBox="0 0 45 32">
<path stroke-linejoin="round" stroke-linecap="round" stroke-miterlimit="4" stroke-width="4" d="M3.2 16h38.4M3.2 3.2h38.4M3.2 28.8h38.4"></path>
</symbol>
<symbol id="icon-twitter" viewBox="0 0 32 32">
<path stroke-linejoin="round" stroke-linecap="round" stroke-miterlimit="4" stroke-width="2.6667" d="M30.667 4c-1.277 0.901-2.691 1.589-4.187 2.040-0.803-0.923-1.87-1.578-3.057-1.875s-2.437-0.222-3.58 0.214c-1.143 0.436-2.125 1.213-2.812 2.226s-1.047 2.212-1.031 3.435v1.333c-2.343 0.061-4.665-0.459-6.759-1.513s-4.561-3.563-5.908-5.481c0 0-4.667 12.954 7.333 18.287-2.746 1.864-6.017 2.799-9.333 2.667 12 6.667 26.667 0 26.667-15.333-0.001-0.371-0.037-0.742-0.107-1.107 1.361-1.342 2.321-3.036 2.773-4.893z"></path>
</symbol>
<symbol id="icon-instagram" viewBox="0 0 32 32">
<path stroke-linejoin="round" stroke-linecap="round" stroke-miterlimit="4" stroke-width="2.6667" d="M22.667 2.667h-13.333c-3.682 0-6.667 2.985-6.667 6.667v13.333c0 3.682 2.985 6.667 6.667 6.667h13.333c3.682 0 6.667-2.985 6.667-6.667v-13.333c0-3.682-2.985-6.667-6.667-6.667z"></path>
<path stroke-linejoin="round" stroke-linecap="round" stroke-miterlimit="4" stroke-width="2.6667" d="M21.334 15.16c0.165 1.11-0.025 2.243-0.542 3.239s-1.334 1.803-2.336 2.307c-1.002 0.504-2.138 0.68-3.245 0.502s-2.131-0.701-2.924-1.494-1.316-1.816-1.494-2.924c-0.178-1.108-0.003-2.243 0.502-3.245s1.312-1.819 2.308-2.336 2.129-0.706 3.239-0.542c1.132 0.168 2.18 0.695 2.989 1.504s1.337 1.857 1.504 2.989z"></path>
<path stroke-linejoin="round" stroke-linecap="round" stroke-miterlimit="4" stroke-width="2.6667" d="M23.333 8.667h0.013"></path>
</symbol>

<symbol id="icon-scroll" viewBox="0 0 32 32">
<path d="M16.947 17.867c-0.124 0.125-0.271 0.224-0.434 0.292s-0.337 0.103-0.513 0.103-0.35-0.035-0.513-0.103c-0.162-0.068-0.31-0.167-0.434-0.292l-6.107-6.12c-0.124-0.125-0.271-0.224-0.434-0.292s-0.337-0.103-0.513-0.103c-0.176 0-0.35 0.035-0.513 0.103s-0.31 0.167-0.434 0.292c-0.248 0.25-0.388 0.588-0.388 0.94s0.139 0.69 0.388 0.94l6.12 6.12c0.75 0.749 1.767 1.17 2.827 1.17s2.077-0.421 2.827-1.17l6.12-6.12c0.246-0.248 0.385-0.584 0.387-0.933 0.001-0.175-0.033-0.349-0.099-0.512s-0.164-0.31-0.288-0.435c-0.124-0.125-0.271-0.224-0.434-0.292s-0.337-0.103-0.513-0.103-0.35 0.035-0.513 0.103c-0.162 0.068-0.31 0.167-0.434 0.292l-6.107 6.12z"></path>
</symbol>

<symbol id="icon-modal-close" viewBox="0 0 32 32">
<path d="M32 3.223 28.777 0 16 12.777 3.223 0 0 3.223 12.777 16 0 28.777 3.223 32 16 19.223 28.777 32 32 28.777 19.223 16 32 3.223z"/>
</symbol>
<symbol id="icon-x-close" viewBox="0 0 32 32">
<path stroke-linejoin="round" stroke-linecap="round" stroke-miterlimit="4" stroke-width="2.2857" d="M24 8l-16 16"></path>
<path stroke-linejoin="round" stroke-linecap="round" stroke-miterlimit="4" stroke-width="2.2857" d="M8 8l16 16"></path>
</symbol>
<symbol id="icon-setanta_logo" viewBox="0 0 114 32">
<path fill="#111" style="fill: var(--color1, #111)" d="M0 0h113.6v32h-113.6v-32z"></path>
<path fill="#111" style="fill: var(--color2, #111)" d="M1.333 1.333h24v29.333h-24v-29.333z"></path>
<path fill="#ffd106" style="fill: var(--color3, #ffd106)" d="M0 32h32v-32h-32zM18.095 24.381h-9.143c-0.21-0-0.381-0.171-0.381-0.381v0-6.857c0-0.21 0.171-0.381 0.381-0.381h9.143c2.104 0 3.81 1.706 3.81 3.81s-1.706 3.81-3.81 3.81v0zM23.428 14.857c0 0.21-0.171 0.381-0.381 0.381v0h-9.143c-2.104 0-3.809-1.706-3.809-3.809s1.706-3.809 3.809-3.809h9.143c0.21 0 0.381 0.17 0.381 0.381v0z"></path>
<path fill="#111" style="fill: var(--color2, #111)" d="M32 0h81.6v32h-81.6v-32z"></path>
<path fill="#ffd106" style="fill: var(--color3, #0ffd106)" d="M99.579 3.822h2.076l4.356 10.209h-2.349l-0.953-2.28h-4.254l-0.953 2.28h-2.28zM101.961 9.812l-1.36-3.301-1.36 3.301z"></path>
<path fill="#ffd106" style="fill: var(--color3, #ffd106)" d="M91.037 5.864h-3.097v-2.041h8.44v2.041h-3.097v8.168h-2.246z"></path>
<path fill="#ffd106" style="fill: var(--color3, #ffd106)" d="M77.458 3.822h2.076l4.731 6.296v-6.296h2.245v10.21h-1.94l-4.867-6.466v6.466h-2.246z"></path>
<path fill="#ffd106" style="fill: var(--color3, #ffd106)" d="M69.597 3.822h2.077l4.355 10.209h-2.349l-0.953-2.28h-4.254l-0.953 2.28h-2.28zM71.979 9.812l-1.36-3.301-1.36 3.301z"></path>
<path fill="#ffd106" style="fill: var(--color3, #ffd106)" d="M61.055 5.864h-3.097v-2.041h8.44v2.041h-3.097v8.168h-2.246z"></path>
<path fill="#ffd106" style="fill: var(--color3, #ffd106)" d="M48.701 3.822h7.827v2.041h-5.581v2.042h4.458v2.042h-4.458v2.042h5.581v2.042h-7.827z"></path>
<path fill="#ffd106" style="fill: var(--color3, #ffd106)" d="M42.031 6.647c0.019-0.442 0.382-0.793 0.828-0.793 0.027 0 0.054 0.001 0.081 0.004l-0.003-0h3.893v-2.035l-4.254 0.034c-0.016-0-0.035-0.001-0.055-0.001-1.551 0-2.812 1.244-2.838 2.789l-0 0.003c0.013 1.346 0.941 2.471 2.191 2.786l0.020 0.004 2.313 0.544c0.466 0.117 0.807 0.528 0.818 1.020l0 0.001c-0.030 0.552-0.484 0.988-1.041 0.988-0.017 0-0.034-0-0.051-0.001l0.002 0h-3.913v2.042h4.288c1.668-0.011 3.018-1.361 3.029-3.028v-0.001c-0.039-1.422-1.032-2.601-2.361-2.921l-0.021-0.004-2.246-0.579c-0.391-0.093-0.678-0.438-0.681-0.851v-0z"></path>
<path fill="#ffd106" style="fill: var(--color3, #ffd106)" d="M40.798 20.364c0-0.002-0-0.005-0-0.008 0-0.801 0.65-1.451 1.451-1.451 0.003 0 0.005 0 0.008 0h4.476v-1.085h-4.511c-1.422 0.003-2.574 1.155-2.578 2.577v0c0.001 1.2 0.832 2.205 1.95 2.472l0.017 0.003 3.222 0.78c0.727 0.192 1.254 0.844 1.254 1.618 0 0.919-0.742 1.665-1.66 1.671h-4.444v1.051h4.477c0.008 0 0.018 0 0.028 0 1.52 0 2.753-1.232 2.753-2.753 0-1.289-0.886-2.371-2.083-2.671l-0.019-0.004-3.222-0.779c-0.647-0.159-1.12-0.734-1.12-1.42 0-0.002 0-0.003 0-0.005v0z"></path>
<path fill="#ffd106" style="fill: var(--color3, #ffd106)" d="M87.366 20.364c0-0.002-0-0.005-0-0.008 0-0.801 0.65-1.451 1.451-1.451 0.003 0 0.005 0 0.008 0h4.477v-1.085h-4.511c-1.422 0.003-2.574 1.155-2.578 2.577v0c0.001 1.2 0.832 2.205 1.95 2.472l0.017 0.003 3.222 0.78c0.727 0.192 1.254 0.844 1.254 1.618 0 0.919-0.742 1.665-1.66 1.671h-4.444v1.051h4.477c0.008 0 0.018 0 0.028 0 1.52 0 2.753-1.232 2.753-2.753 0-1.289-0.886-2.371-2.083-2.671l-0.019-0.004-3.222-0.779c-0.647-0.159-1.12-0.734-1.12-1.42 0-0.002 0-0.003 0-0.005v0z"></path>
<path fill="#ffd106" style="fill: var(--color3, #ffd106)" d="M56.264 21.11c0 2.195-1.811 3.29-3.978 3.29h-2.467v3.595h-1.153v-10.175h3.799c2.277 0 3.773 1.311 3.799 3.29zM55.11 21.11c0-1.454-1.003-2.205-2.645-2.205h-2.646v4.443h2.578c1.686 0 2.713-0.901 2.713-2.238z"></path>
<path fill="#ffd106" style="fill: var(--color3, #ffd106)" d="M67.287 22.908c0 2.803-2.028 5.257-5.122 5.257s-5.189-2.453-5.189-5.257 2.096-5.257 5.189-5.257 5.122 2.455 5.122 5.257zM66.134 22.908c0-2.309-1.645-4.172-3.968-4.172s-4.036 1.863-4.036 4.172 1.714 4.172 4.036 4.172 3.968-1.863 3.968-4.172z"></path>
<path fill="#ffd106" style="fill: var(--color3, #ffd106)" d="M76.75 20.873c0 1.687-1.147 2.693-2.747 2.985l3.12 4.138h-1.391l-2.985-3.968h-2.883v3.968h-1.153v-10.175h4.375c1.251 0 2.243 0.377 2.883 1.018 0.484 0.513 0.781 1.207 0.781 1.97 0 0.023-0 0.046-0.001 0.068l0-0.003zM75.597 20.873c0-1.251-0.968-1.967-2.611-1.967h-3.12v4.036h3.12c1.527 0 2.611-0.759 2.611-2.069z"></path>
<path fill="#ffd106" style="fill: var(--color3, #ffd106)" d="M80.922 18.906h-3.46v-1.085h8.038v1.085h-3.426v9.090h-1.153z"></path>
</symbol>
<symbol id="icon-setanta_logo_short" viewBox="0 0 32 32">
<path fill="#fff" style="fill: var(--color1, #fff)" d="M0 0h32v32h-32v-32z"></path>
<path fill="#111" style="fill: var(--color2, #111)" d="M1.333 1.333h29.067v29.333h-29.067v-29.333z"></path>
<path fill="#000" style="fill: var(--color3, #000)" d="M0 32h32v-32h-32zM18.095 24.381h-9.143c-0.21-0-0.381-0.171-0.381-0.381v0-6.857c0-0.21 0.171-0.381 0.381-0.381h9.143c2.104 0 3.81 1.706 3.81 3.81s-1.706 3.81-3.81 3.81v0zM23.428 14.857c0 0.21-0.171 0.381-0.381 0.381v0h-9.143c-2.104 0-3.809-1.706-3.809-3.809s1.706-3.809 3.809-3.809h9.143c0.21 0 0.381 0.17 0.381 0.381v0z"></path>
</symbol>
</defs>
 
</svg>
